<svg xmlns="http://www.w3.org/2000/svg" width="1024" height="1024" viewBox="0 0 1024 1024" version="1.1">
<path id="path_0" isStroke="false" d="M0 0H1024V1024H0Z" fill="#fff" stroke="none"/>	<path id="path_1" isStroke="true" d="M 40.665 3.575 C 6.879 15.666, -9.235 53.528, 6.005 85.011 C 8.453 90.068, 67.127 156.823, 149.572 248.353 C 294.877 409.668, 300 415.436, 300 417.682 C 300 418.439, 290.023 421.097, 277.828 423.589 C 249.943 429.288, 207.539 443.161, 188.137 452.931 C 160.075 467.063, 145.275 481.309, 140.071 499.200 C 138.426 504.856, 137.967 564.724, 138.401 717 L 139 927 144.468 936.302 C 161.191 964.749, 211.341 987.876, 291 1003.877 C 358.975 1017.531, 421.382 1022.864, 512 1022.761 C 702.561 1022.546, 848.734 988.423, 878.049 937.311 L 883.962 927 883.981 849.578 C 884 772.496, 883.981 772.138, 879.623 768.078 C 873.257 762.147, 863.314 762.699, 858.145 769.270 C 854.230 774.247, 854 777.042, 854 819.579 L 854 864.619 845.877 872.346 C 841.410 876.596, 831.613 883.166, 824.106 886.946 C 808.210 894.952, 768.416 909.082, 766.674 907.340 C 766.018 906.685, 785.347 847.390, 809.628 775.574 L 853.774 645 853.887 679.591 C 853.998 713.580, 854.085 714.267, 858.909 719.091 C 864.908 725.090, 871.740 725.354, 878.730 719.855 L 884 715.710 884 607.486 C 884 501.988, 883.895 499.047, 879.843 490.676 C 871.529 473.501, 847.601 456.632, 812.136 442.942 C 793.588 435.782, 735.670 420, 727.945 420 C 725.775 420, 724 419.131, 724 418.070 C 724 415.428, 720.412 419.474, 872.187 250.942 C 946.540 168.380, 1010.194 96.937, 1013.641 92.179 C 1017.087 87.421, 1020.480 80.474, 1021.180 76.742 C 1021.881 73.010, 1023.251 69.463, 1024.227 68.860 C 1025.202 68.257, 1026 63.264, 1026 57.764 C 1026 52.264, 1025.199 48.259, 1024.219 48.864 C 1023.240 49.470, 1021.879 46.982, 1021.195 43.336 C 1019.365 33.579, 1009.385 19.028, 999.724 12.030 C 975.928 -5.208, 942.463 -2.477, 922.632 18.321 C 919.130 21.995, 860.929 102.263, 793.298 196.696 C 725.666 291.128, 668.496 369.677, 666.254 371.247 C 664.011 372.818, 656.998 375.060, 650.669 376.231 C 635.694 378.999, 621.762 386.180, 612.150 396.084 L 604.438 404.031 572.598 402.718 L 540.758 401.406 536.379 406.973 C 531.004 413.805, 530.806 420.082, 535.771 426.214 C 539.238 430.496, 541.610 430.982, 565.271 432.262 C 579.422 433.027, 591.549 433.731, 592.220 433.826 C 592.891 433.922, 593.974 439.175, 594.627 445.500 C 598.058 478.748, 625.534 504, 658.281 504 C 686.458 504, 712.781 484.069, 720.230 457.093 C 721.332 453.099, 723.465 450, 725.110 450 C 730.595 450, 768.961 459.721, 787.507 465.811 C 827.230 478.852, 854 496.397, 854 509.387 C 854 517.844, 847.936 524.690, 832.359 533.816 C 755.917 578.603, 550.829 599.814, 377 580.912 C 264.829 568.714, 175.733 539.051, 168.963 511.650 C 167.868 507.216, 169.071 504.749, 175.986 497.246 C 190.191 481.837, 225.948 466.603, 275.484 454.857 C 298.889 449.307, 301.999 449.031, 302.002 452.500 C 302.002 453.875, 304.562 460.400, 307.689 467 C 330.277 514.669, 397.883 516.405, 421.593 469.925 C 425.704 461.867, 428.633 452.669, 429.373 445.500 C 430.026 439.175, 431.109 433.922, 431.780 433.826 C 432.451 433.731, 444.578 433.027, 458.729 432.262 C 482.390 430.982, 484.762 430.496, 488.229 426.214 C 493.194 420.082, 492.996 413.805, 487.620 406.971 L 483.240 401.403 451.345 402.659 L 419.449 403.915 411.793 396.026 C 402.235 386.176, 388.279 378.994, 373.331 376.231 C 367.002 375.060, 359.989 372.818, 357.746 371.247 C 355.504 369.677, 298.334 291.128, 230.702 196.696 C 163.071 102.263, 104.870 21.995, 101.368 18.321 C 86.396 2.620, 60.747 -3.611, 40.665 3.575" stroke="none" fill="black" fill-rule="evenodd"/> <path id="path_2" isStroke="false" d="M 46.617 33.788 C 40.749 36.526, 37 40.120, 34.117 45.770 C 29.308 55.197, 28.948 61.654, 32.736 70.564 C 34.241 74.104, 100.012 148.550, 178.895 236 C 257.777 323.450, 324.190 398.600, 326.478 403 C 329.561 408.927, 330.966 416.468, 331.903 432.106 C 333.349 456.267, 336.672 463.201, 350.089 470.045 C 376.630 483.585, 406.365 458.710, 397.803 430.131 C 394.630 419.542, 382.831 408.669, 372.619 406.924 C 356.986 404.252, 350.121 401.776, 340.871 395.473 C 332.910 390.049, 311.082 360.669, 206.185 214.191 C 137.333 118.046, 78.672 37.655, 75.827 35.545 C 68.146 29.846, 56.558 29.149, 46.617 33.788" stroke="none" fill="#fff" fill-rule="evenodd"/> <path id="path_3" isStroke="false" d="M 952.744 32.879 C 949.304 34.376, 944.115 38.616, 941.214 42.301 C 938.313 45.985, 881.201 125.500, 814.299 219 C 712.215 361.669, 691.129 390.041, 683.144 395.473 C 673.878 401.776, 667.009 404.253, 651.381 406.924 C 640.924 408.711, 628.679 420.087, 625.773 430.716 C 624.065 436.959, 624.090 441.218, 625.872 448 C 633.183 475.824, 668.229 483.166, 685.520 460.496 C 690.213 454.343, 690.958 451.141, 692.087 432.278 C 693.034 416.461, 694.430 408.947, 697.527 403 C 699.818 398.600, 766.240 323.450, 845.130 236 C 924.021 148.550, 989.883 73.882, 991.490 70.072 C 997.537 55.733, 990.512 39.040, 975.985 33.227 C 966.286 29.347, 961.042 29.268, 952.744 32.879" stroke="none" fill="#fff" fill-rule="evenodd"/> <path id="path_4" isStroke="false" d="M 0.599 60 C 0.599 66.050, 0.974 68.525, 1.433 65.500 C 1.891 62.475, 1.891 57.525, 1.433 54.500 C 0.974 51.475, 0.599 53.950, 0.599 60" stroke="none" fill="#fff" fill-rule="evenodd"/> <path id="path_5" isStroke="true" d="M 504.458 269.339 C 498.081 271.904, 496 281.571, 496 308.631 C 496 332.745, 496.419 335.994, 500.145 340.730 C 505.339 347.333, 516.045 347.955, 522 342 C 525.654 338.346, 526 335.333, 526 307.145 L 526 276.290 520.730 272.145 C 515.672 268.166, 509.862 267.164, 504.458 269.339" stroke="none" fill="black" fill-rule="evenodd"/> <path id="path_6" isStroke="true" d="M 397.270 300.145 C 388.992 306.656, 390.302 313.698, 404.274 337.815 C 419.683 364.410, 422.885 368, 431.203 368 C 438.962 368, 446.776 359.622, 445.457 352.719 C 444.997 350.315, 438.513 337.561, 431.048 324.376 C 414.726 295.549, 408.652 291.192, 397.270 300.145" stroke="none" fill="black" fill-rule="evenodd"/> <path id="path_7" isStroke="true" d="M 607.575 300.277 C 600.367 307.535, 578 348.675, 578 354.675 C 578 366.007, 595.114 372.889, 602.434 364.500 C 608.545 357.495, 632 314.798, 632 310.678 C 632 304.498, 625.934 298.192, 618.633 296.783 C 613.589 295.809, 611.290 296.535, 607.575 300.277" stroke="none" fill="black" fill-rule="evenodd"/> <path id="path_8" isStroke="false" d="M 200.358 636.153 C 200.937 637.719, 220.087 695.081, 242.914 763.625 C 265.740 832.169, 284.658 887.969, 284.952 887.625 C 286.298 886.054, 384.012 674.827, 384.006 673.500 C 384.003 672.675, 381.293 672, 377.984 672 C 368.261 672, 315.057 664.145, 288 658.715 C 255.448 652.182, 224.557 643.496, 203.153 634.858 C 200.274 633.696, 199.571 634.022, 200.358 636.153" stroke="none" fill="#fff" fill-rule="evenodd"/> <path id="path_9" isStroke="false" d="M 793.512 643.278 C 758.934 655.005, 694.573 667.540, 643.594 672.477 C 638.197 672.999, 638.265 673.163, 686.248 776 C 712.680 832.650, 735.220 881.250, 736.336 884 C 738.085 888.309, 744.281 871.448, 781.166 762 C 804.706 692.150, 823.974 634.775, 823.983 634.500 C 824.024 633.273, 817.319 635.204, 793.512 643.278" stroke="none" fill="#fff" fill-rule="evenodd"/> <path id="path_10" isStroke="false" d="M 170 756.597 L 170 863.861 176.021 870.719 C 183.606 879.357, 206.922 891.526, 233.694 900.818 C 245.075 904.768, 255.175 908, 256.138 908 C 257.592 908, 173.053 652.733, 170.748 650.167 C 170.337 649.708, 170 697.602, 170 756.597" stroke="none" fill="#fff" fill-rule="evenodd"/> <path id="path_11" isStroke="false" d="M 431.958 677.283 C 431.861 681.324, 511.091 903.689, 512.173 902.411 C 512.830 901.635, 530.745 851.500, 551.985 791 C 573.224 730.500, 591.064 679.740, 591.630 678.201 C 592.419 676.051, 591.407 675.715, 587.271 676.753 C 580.433 678.469, 443.882 678.549, 437.076 676.840 C 434.284 676.140, 431.981 676.339, 431.958 677.283" stroke="none" fill="#fff" fill-rule="evenodd"/> <path id="path_12" isStroke="false" d="M 395.184 725 C 388.970 738.200, 366.082 787.250, 344.322 834 L 304.757 919 316.879 921.381 C 363.947 930.626, 488 939.892, 488 934.162 C 488 932.848, 424.689 751.697, 407.560 704 C 406.926 702.234, 401.834 710.874, 395.184 725" stroke="none" fill="#fff" fill-rule="evenodd"/> <path id="path_13" isStroke="false" d="M 613.502 710.204 C 601.781 743.726, 536.043 929.748, 534.829 932.827 C 533.367 936.538, 534.381 936.614, 568.160 935.327 C 587.322 934.597, 613.350 933.058, 626 931.908 C 650.762 929.657, 715.976 920.691, 717.313 919.353 C 717.998 918.669, 627.614 722.472, 619.336 706.672 L 616.578 701.408 613.502 710.204" stroke="none" fill="#fff" fill-rule="evenodd"/>
</svg>