<svg xmlns="http://www.w3.org/2000/svg" width="1024" height="1024" viewBox="0 0 1024 1024" version="1.1">
<path id="path_0" isStroke="false" d="M0 0H1024V1024H0Z" fill="#fff" stroke="none"/>	<path id="path_1" isStroke="true" d="M 139.006 18.970 C 92.809 29.257, 52.784 39.025, 50.060 40.677 C 44.214 44.225, 38 55.011, 38 61.611 C 38 64.181, 47 107.601, 58 158.099 C 69 208.597, 78 250.833, 78 251.957 C 78 253.090, 73.289 254, 67.420 254 C 52.910 254, 34.873 259.023, 23.749 266.161 C -15.341 291.245, -2.432 350.482, 43.715 357.777 C 64.530 361.067, 90.309 353.383, 103.836 339.856 C 113.406 330.286, 118.675 317.350, 118.438 304 C 118.331 297.950, 109.750 254.300, 99.370 207 C 88.990 159.700, 81.275 120.504, 82.225 119.897 C 85.131 118.041, 237.882 85.215, 238.895 86.229 C 240.182 87.515, 265.979 206.038, 265.991 210.717 C 265.998 213.684, 264.992 214.181, 260.999 213.179 C 253.947 211.409, 232.284 215.215, 221 220.206 C 185.758 235.795, 177.700 279.552, 205.556 304.071 C 236.177 331.026, 293.935 315.359, 305.063 277.080 C 307.218 269.666, 307.866 262.990, 306.972 257.426 C 303.321 234.729, 255.197 18.285, 252.741 13.519 C 248.855 5.977, 241.514 1.617, 231.471 0.884 C 226.112 0.493, 192.140 7.138, 139.006 18.970" stroke="none" fill="black" fill-rule="evenodd"/> <path id="path_2" isStroke="true" d="M 920.029 2.237 C 917.295 3.327, 909.800 8.793, 903.374 14.382 L 891.690 24.544 882.276 15.272 C 872.216 5.363, 866.127 3.733, 858.674 8.953 C 849.735 15.214, 851.456 27.242, 862.810 37.849 C 865.664 40.515, 868 43.330, 868 44.104 C 868 44.878, 862.117 50.677, 854.926 56.990 L 841.852 68.468 830.075 57.234 C 820.473 48.075, 817.034 46, 811.458 46 C 803.825 46, 799.033 50.109, 796.955 58.438 C 795.778 63.154, 797.150 65.504, 807.299 76.151 L 819 88.428 805.011 101.052 L 791.023 113.677 779.660 102.838 C 770.339 93.947, 767.039 92, 761.294 92 C 756.110 92, 753.213 93.369, 750.145 97.270 C 743.867 105.252, 744.992 109.240, 757.106 121.940 L 768.212 133.583 757.910 142.270 C 746.128 152.205, 742 158.987, 742 168.411 C 742 174.436, 735.585 181.434, 669.471 247.529 C 599.105 317.875, 596.813 319.946, 592.585 316.985 C 583.009 310.277, 548.079 294.111, 533 289.408 C 485.769 274.677, 440.172 277.521, 404.200 297.443 C 387.936 306.450, 363.347 329.882, 350.195 348.906 C 339.266 364.715, 337.374 373.088, 343.374 379.088 C 346.539 382.254, 346.472 382.974, 342.293 390.731 C 339.843 395.279, 335.648 401.498, 332.971 404.551 C 328.962 409.124, 327.126 409.844, 322.552 408.636 C 314.172 406.424, 312.848 407.112, 294.333 423.299 C 262.401 451.216, 233.258 465.901, 191 475.369 C 162.532 481.747, 143.606 488.132, 124.451 497.818 C 38.747 541.158, -9.172 633.890, 1.889 735 C 16.998 873.126, 123.172 988.725, 262 1018.200 C 291.961 1024.561, 342.715 1024.637, 370 1018.361 C 394.347 1012.761, 420.910 1002.460, 440.302 991.099 C 459.437 979.888, 464.779 973.577, 463.227 964.012 C 462.185 957.592, 463.009 956.096, 473.329 945.668 C 483.125 935.768, 485.169 934.543, 489.282 936.107 C 498.968 939.790, 506.005 933.788, 520.771 909.250 C 530.257 893.485, 538.817 870.516, 546.121 841.224 C 557.791 794.429, 566.860 773.150, 585.941 747.794 C 604.184 723.550, 623.342 706.645, 656 685.972 C 695.634 660.882, 715.246 640.723, 729.290 610.638 C 739.164 589.485, 742.533 572.795, 742.339 546 C 742.090 511.500, 730.984 473.827, 711.022 439.767 C 707.160 433.177, 704 427.182, 704 426.444 C 704 425.706, 726.500 402.538, 754 374.961 C 785.657 343.215, 804 323.365, 804 320.855 C 804 311.104, 793.042 303.147, 783.969 306.311 C 781.190 307.279, 719.129 367.865, 646.054 440.946 L 513.192 573.819 506.249 561.410 C 497.711 546.149, 478.872 527.374, 462.542 517.853 L 450.284 510.706 606.141 354.859 L 761.997 199.013 793.076 230.092 L 824.155 261.171 821.307 267.945 C 817.742 276.424, 820.150 284.515, 827.194 287.724 C 834.136 290.888, 836.698 290.600, 842.546 286 C 845.517 283.663, 850.659 282, 854.915 282 C 864.880 282, 871.465 278.073, 881.705 266.024 L 890.410 255.782 902.056 266.891 C 914.760 279.008, 918.748 280.134, 926.730 273.855 C 930.631 270.787, 932 267.890, 932 262.706 C 932 256.961, 930.053 253.661, 921.162 244.340 L 910.323 232.977 923.012 218.989 L 935.701 205 946.751 215.833 C 959.466 228.299, 967.770 230.191, 974.312 222.112 C 980.863 214.021, 979.087 207.403, 966.808 194.140 L 955.617 182.051 967.053 169.026 C 973.342 161.862, 979.122 156, 979.896 156 C 980.670 156, 983.485 158.336, 986.151 161.190 C 996.758 172.544, 1008.786 174.265, 1015.047 165.326 C 1020.260 157.883, 1018.636 151.784, 1008.776 141.773 L 999.552 132.408 1010.570 119.420 C 1022.631 105.203, 1025.447 97.446, 1022.163 87.493 C 1019.531 79.519, 945.756 5.218, 937.370 2.096 C 930.596 -0.426, 926.622 -0.394, 920.029 2.237" stroke="none" fill="black" fill-rule="evenodd"/> <path id="path_3" isStroke="true" d="M 718 255.439 C 711.543 257.770, 708 262.780, 708 269.579 C 708 275.662, 710.322 278.907, 726.439 295.342 C 745.228 314.501, 750.053 317.424, 759.126 315.147 C 764.666 313.757, 770.119 303.889, 768.587 298.028 C 767.345 293.281, 729.889 256.631, 725 255.380 C 722.800 254.817, 719.650 254.843, 718 255.439" stroke="none" fill="black" fill-rule="evenodd"/> <path id="path_4" isStroke="true" d="M 666.977 304.026 C 664.973 306.240, 663.333 310.810, 663.333 314.180 C 663.333 319.280, 666.718 323.694, 683.488 340.464 C 701.258 358.234, 704.432 360.596, 710.306 360.429 C 718.427 360.199, 724 354.077, 724 345.388 C 724 340.249, 720.726 335.946, 704.390 319.610 C 686.963 302.182, 683.992 300, 677.700 300 C 673.145 300, 669.321 301.436, 666.977 304.026" stroke="none" fill="black" fill-rule="evenodd"/> <path id="path_5" isStroke="true" d="M 622.145 349.270 C 617.441 355.250, 617.048 358.392, 620.222 364.631 C 623.447 370.969, 652.040 399.783, 658.483 403.188 C 668.952 408.720, 680 401.569, 680 389.262 C 680 384.528, 676.249 379.663, 660.293 363.707 C 642.702 346.117, 639.818 344, 633.438 344 C 628.098 344, 625.242 345.333, 622.145 349.270" stroke="none" fill="black" fill-rule="evenodd"/> <path id="path_6" isStroke="true" d="M 578.145 393.270 C 570.443 403.062, 572.260 407.051, 594.605 429.395 C 617.335 452.126, 622.034 454.148, 631.091 445.091 C 640.029 436.152, 638.054 431.508, 615.620 408.710 C 598.085 390.891, 594.336 388, 588.765 388 C 584.152 388, 581.098 389.515, 578.145 393.270" stroke="none" fill="black" fill-rule="evenodd"/> <path id="path_7" isStroke="true" d="M 535.270 436.145 C 531.563 439.061, 530 442.165, 530 446.611 C 530 451.956, 533.160 456.103, 550.464 473.466 C 573.102 496.181, 577.938 498.244, 587.091 489.091 C 596.148 480.034, 594.126 475.335, 571.395 452.605 C 549.051 430.260, 545.062 428.443, 535.270 436.145" stroke="none" fill="black" fill-rule="evenodd"/> <path id="path_8" isStroke="true" d="M 824.642 678.140 C 817.185 682.917, 817.845 681.411, 776.955 787 C 760.768 828.800, 747.123 864.025, 746.633 865.278 C 746.077 866.699, 742.056 865.076, 735.946 860.964 C 722.776 852.101, 707.516 847.176, 693 847.105 C 672.697 847.006, 658.373 855.239, 648.836 872.491 C 643.957 881.318, 643.034 885.241, 643.073 897 C 643.127 913.607, 647.519 923.486, 659.765 934.550 C 687.215 959.349, 728.781 960.026, 748.231 935.991 C 751.845 931.524, 765.924 897.951, 787.226 843 C 805.562 795.700, 820.727 756.786, 820.925 756.524 C 821.342 755.973, 970.518 813.851, 971.682 815.015 C 972.108 815.441, 961.862 843.190, 948.912 876.679 L 925.368 937.567 917.474 931.849 C 900.933 919.866, 876.676 914, 860.108 917.974 C 822.836 926.915, 809.181 974.744, 836.249 1001.544 C 865.500 1030.506, 910.846 1030.851, 930.049 1002.258 C 936.805 992.199, 1024.002 767.800, 1023.993 760.499 C 1023.983 753.806, 1017.836 743.276, 1011.595 739.262 C 1009.068 737.636, 970.808 722.288, 926.574 705.153 C 872.859 684.346, 843.633 674.011, 838.574 674.034 C 834.408 674.052, 828.139 675.900, 824.642 678.140" stroke="none" fill="black" fill-rule="evenodd"/> <path id="path_9" isStroke="false" d="M 158.654 685.442 C 152.840 686.507, 144.673 694.918, 143.501 701.049 C 141.162 713.287, 142.998 715.483, 221.753 794.651 C 264.239 837.358, 301.516 874.124, 304.590 876.351 C 320.313 887.741, 341.857 873.677, 338.424 854.263 C 337.781 850.627, 313.610 824.992, 260.247 771.349 C 217.761 728.642, 180.750 692.098, 178 690.141 C 172.276 686.068, 164.953 684.290, 158.654 685.442" stroke="none" fill="#fff" fill-rule="evenodd"/>
</svg>