<svg xmlns="http://www.w3.org/2000/svg" width="1024" height="1024" viewBox="0 0 1024 1024" version="1.1">
<path id="path_0" isStroke="false" d="M0 0H1024V1024H0Z" fill="#fff" stroke="none"/>	<path id="path_1" isStroke="true" d="M 74.804 2.958 C 57.041 6.842, 42.756 14.874, 28.815 28.815 C 14.574 43.055, 6.843 57.044, 2.881 75.738 C -1.320 95.555, -1.320 928.445, 2.881 948.262 C 6.861 967.040, 14.586 980.956, 29.068 995.439 C 43.708 1010.078, 60.127 1018.665, 79.695 1021.913 C 89.193 1023.490, 215.190 1023.954, 520 1023.533 C 910.632 1022.993, 947.787 1022.662, 956.237 1019.646 C 990.248 1007.508, 1017.273 977.504, 1021.261 947.455 C 1021.957 942.205, 1023.309 937.427, 1024.264 936.837 C 1025.237 936.236, 1026 748.490, 1026 509.764 C 1026 267.329, 1025.247 84.229, 1024.253 84.844 C 1023.292 85.438, 1021.940 81.666, 1021.250 76.462 C 1017.273 46.497, 990.209 16.479, 956.237 4.354 C 947.778 1.334, 910.760 1.024, 517 0.674 C 164.968 0.360, 84.789 0.774, 74.804 2.958" stroke="none" fill="black" fill-rule="evenodd"/> <path id="path_2" isStroke="false" d="M 82.901 66.813 C 74.849 70.320, 66.441 80.540, 65.009 88.559 C 64.377 92.101, 64.116 285.059, 64.430 517.353 L 65 939.707 69.124 945.230 C 71.392 948.268, 75.731 952.608, 78.767 954.876 C 84.058 958.829, 87.181 959.024, 154.144 959.574 L 224 960.148 224 768.251 L 224 576.354 202.337 575.677 C 182.429 575.055, 180.102 574.564, 173.618 569.613 C 158.990 558.444, 160 577.907, 160 307.198 L 160 64 124.500 64.078 C 99.531 64.133, 87.191 64.945, 82.901 66.813" stroke="none" fill="#fff" fill-rule="evenodd"/> <path id="path_3" isStroke="false" d="M 352 307.198 C 352 577.907, 353.010 558.444, 338.382 569.613 C 331.898 574.564, 329.571 575.055, 309.663 575.677 L 288 576.354 288 768.177 L 288 960 384 960 L 480 960 480 768.177 L 480 576.354 458.337 575.677 C 438.429 575.055, 436.102 574.564, 429.618 569.613 C 414.990 558.444, 416 577.907, 416 307.198 L 416 64 384 64 L 352 64 352 307.198" stroke="none" fill="#fff" fill-rule="evenodd"/> <path id="path_4" isStroke="false" d="M 608 307.198 C 608 577.907, 609.010 558.444, 594.382 569.613 C 587.898 574.564, 585.571 575.055, 565.663 575.677 L 544 576.354 544 768.177 L 544 960 640 960 L 736 960 736 768.177 L 736 576.354 714.337 575.677 C 694.429 575.055, 692.102 574.564, 685.618 569.613 C 670.990 558.444, 672 577.907, 672 307.198 L 672 64 640 64 L 608 64 608 307.198" stroke="none" fill="#fff" fill-rule="evenodd"/> <path id="path_5" isStroke="false" d="M 864 307.077 C 864 577.921, 865.010 558.443, 850.382 569.613 C 843.898 574.564, 841.571 575.055, 821.663 575.677 L 800 576.354 800 768.251 L 800 960.148 869.856 959.574 C 936.819 959.024, 939.942 958.829, 945.233 954.876 C 948.269 952.608, 952.608 948.267, 954.876 945.230 L 959 939.707 959 512 L 959 84.293 954.876 78.770 C 944.984 65.520, 943.283 65.058, 901.860 64.379 L 864 63.758 864 307.077" stroke="none" fill="#fff" fill-rule="evenodd"/> <path id="path_6" isStroke="false" d="M 0.982 512 C 0.982 746.850, 1.215 842.925, 1.500 725.500 C 1.785 608.075, 1.785 415.925, 1.500 298.500 C 1.215 181.075, 0.982 277.150, 0.982 512" stroke="none" fill="#fff" fill-rule="evenodd"/>
</svg>