<svg xmlns="http://www.w3.org/2000/svg" width="1024" height="1024" viewBox="0 0 1024 1024" version="1.1">
<path id="path_0" isStroke="false" d="M0 0H1024V1024H0Z" fill="#fff" stroke="none"/>	<path id="path_1" isStroke="true" d="M 616 3.107 C 583.669 10.044, 551.608 34.898, 537.331 64.093 C 527.960 83.255, 524.576 97.749, 523.109 125 C 522.458 137.100, 521.401 153.075, 520.760 160.500 L 519.594 174 503.797 174 L 488 174 488 191 L 488 208 504 208 L 520 208 520 226 L 520 244 502 244 L 484 244 484 260.912 L 484 277.825 498.500 278.412 L 513 279 513.578 296.500 L 514.156 314 497.078 314 L 480 314 480 332 L 480 350 496 350 L 512 350 512 366.925 L 512 383.850 493.500 384.425 L 475 385 474.422 402.500 L 473.844 420 490.157 420 L 506.470 420 505.222 434.500 C 504.535 442.475, 498.555 528.650, 491.933 626 C 485.311 723.350, 479.036 805.025, 477.989 807.500 C 475.866 812.521, 466.572 813.772, 462.400 809.600 C 460.570 807.770, 460 765.260, 460 630.469 C 460 507.695, 459.340 452.504, 457.839 449.699 C 454.797 444.015, 443.376 439.566, 437.596 441.813 C 426.264 446.218, 96.512 638.579, 92.500 643.125 C 87.495 648.795, 86.839 654.083, 90.327 660.631 C 93.839 667.227, 97.853 669.451, 110.861 672.010 C 153.333 680.366, 189.458 711.280, 204.900 752.484 C 210.096 766.349, 213.935 791.847, 214.010 813 C 214.033 819.600, 215.731 833.100, 217.783 843 C 236.397 932.823, 304.689 1000.398, 397 1020.336 C 404.030 1021.855, 421.011 1022.850, 438 1022.740 C 470.332 1022.530, 491.100 1018.319, 520.826 1005.944 C 576.025 982.964, 623.297 931.479, 642.806 873.090 C 654.469 838.187, 654 855.404, 654 462.008 L 654 100.539 658.145 95.270 C 662.188 90.130, 668.208 88.670, 674.849 91.219 C 676.596 91.889, 681.823 99.764, 686.465 108.719 C 698.857 132.627, 717.765 150.915, 742.225 162.653 C 766.089 174.105, 775.737 176, 810.189 176 C 837.243 176, 838.346 175.835, 843.091 171.091 C 847.915 166.267, 848 165.598, 848 132.440 C 848 98.879, 847.973 98.671, 842.913 93.918 C 838.993 90.236, 834.719 88.854, 824.290 87.898 C 808.872 86.485, 794.007 79.963, 786.868 71.478 C 784.274 68.395, 778.767 59.377, 774.632 51.436 C 761.431 26.095, 741.585 9.787, 715.488 2.840 C 701.276 -0.944, 634.038 -0.763, 616 3.107" stroke="none" fill="black" fill-rule="evenodd"/> <path id="path_2" isStroke="true" d="M 876.039 90.569 C 867.409 94.936, 866.061 100.697, 866.029 133.347 C 866.001 163.096, 866.102 163.814, 871.178 169.847 L 876.356 176 901.269 176 C 925.053 176, 926.404 175.778, 931.091 171.091 C 935.919 166.263, 935.999 165.628, 935.936 132.591 C 935.870 97.507, 935.306 94.947, 926.631 90.327 C 920.667 87.150, 882.435 87.333, 876.039 90.569" stroke="none" fill="black" fill-rule="evenodd"/>
</svg>