<svg xmlns="http://www.w3.org/2000/svg" width="1024" height="1024" viewBox="0 0 1024 1024" version="1.1">
<path id="path_0" isStroke="false" d="M0 0H1024V1024H0Z" fill="#fff" stroke="none"/>	<path id="path_1" isStroke="true" d="M 809.494 15.462 L 798.032 26.925 810.477 39.481 L 822.922 52.038 810.480 64.480 L 798.038 76.922 785.461 64.457 L 772.883 51.991 761.002 63.998 L 749.120 76.005 761.440 88.502 L 773.759 101 769.902 105.694 C 758.501 119.569, 760.522 136.315, 775.535 152.365 L 784.758 162.225 699.194 247.806 L 613.631 333.387 592.640 322.865 C 556.439 304.719, 519.570 297.659, 482.185 301.714 C 442.006 306.072, 414.541 316.784, 377.497 342.547 C 374.407 344.696, 359.064 330.054, 247.029 218.029 L 120.063 91.075 109.031 101.969 C 102.964 107.961, 98 113.770, 98 114.878 C 98 115.986, 103.509 122.450, 110.241 129.243 L 122.482 141.594 117.338 152.469 C 103.779 181.129, 107.881 218.299, 127.229 242.099 C 130.403 246.004, 172.150 287.363, 220 334.008 C 285.699 398.052, 307.574 420.553, 309.346 425.908 C 312.631 435.836, 312.487 454.990, 309.029 468 C 300.097 501.610, 273.790 533.868, 242.588 549.472 C 206.101 567.720, 175.138 566.219, 148.872 544.930 L 140.743 538.341 102.872 569.795 C 82.042 587.094, 59.949 606.734, 53.776 613.440 C 30.994 638.187, 15.472 667.196, 5.673 703.340 C -0.643 726.636, -0.641 772.214, 5.677 796.432 C 12.486 822.530, 27.858 857.204, 34.417 861.257 C 35.536 861.949, 55.931 843.050, 79.740 819.260 L 123.029 776.004 184 837 L 244.971 897.995 201.283 941.717 L 157.595 985.439 163.297 989.463 C 179.957 1001.219, 209.470 1012.460, 235.762 1017.064 C 300.453 1028.394, 366.762 1007.477, 413.118 961.119 C 424.065 950.171, 480 881.934, 480 879.527 C 480 878.978, 476.037 872.620, 471.194 865.398 C 458.196 846.015, 455.295 828.723, 460.989 804.574 C 473.130 753.086, 522.860 709.993, 571 709.248 C 579.800 709.112, 589.330 709.656, 592.178 710.457 C 595.269 711.327, 635.609 750.487, 692.293 807.642 C 777.016 893.071, 788.625 904.057, 800.193 909.752 C 824.817 921.874, 850.872 922.303, 875.576 910.994 L 886.820 905.846 943.385 962.385 L 999.950 1018.924 1011.975 1007.025 L 1024 995.125 1024.272 1001.063 C 1024.511 1006.260, 1024.658 1006.400, 1025.453 1002.185 C 1026.236 998.032, 1001.910 972.917, 848.822 819.822 L 671.283 642.275 680.386 628.637 C 704.095 593.120, 714.485 558.494, 714.485 515 C 714.485 479.037, 707.942 451.264, 692.419 421.337 L 685.333 407.673 771.551 321.455 L 857.769 235.237 867.829 244.647 C 883.816 259.600, 894.546 261.646, 911.027 252.884 L 920.649 247.767 932.346 259.342 L 944.043 270.917 956.043 258.917 L 968.043 246.917 956.017 235.017 L 943.991 223.117 956.440 210.556 L 968.888 197.996 981.002 210.002 L 993.117 222.009 1005.002 209.998 L 1016.887 197.987 1002.182 183.183 C 987.908 168.813, 987.540 168.197, 989.641 162.169 C 996.035 143.829, 993.584 116.875, 983.758 97.457 C 978.255 86.584, 942.181 49.555, 928.365 40.598 C 922.515 36.807, 913.113 32.333, 907.471 30.658 C 895.157 27.001, 871.545 26.777, 860.089 30.210 L 851.794 32.695 837.350 18.347 C 829.406 10.456, 822.467 4, 821.931 4 C 821.395 4, 815.798 9.158, 809.494 15.462" stroke="none" fill="black" fill-rule="evenodd"/> <path id="path_2" isStroke="false" d="M 145.762 173.500 C 142.349 182.275, 144.646 206.337, 149.673 214.471 C 153.033 219.908, 271.115 336.930, 315.339 378.650 L 323.679 386.518 335.950 376.877 L 348.221 367.236 248.618 267.618 C 193.836 212.828, 148.764 168, 148.458 168 C 148.152 168, 146.938 170.475, 145.762 173.500" stroke="none" fill="#fff" fill-rule="evenodd"/> <path id="path_3" isStroke="false" d="M 303.467 592.081 C 291.371 595.084, 287.149 598.575, 243.891 641.350 C 206.389 678.433, 202.178 681.999, 195.891 681.987 C 192.101 681.980, 186.300 680.186, 183 678 C 169.509 669.066, 154 675.674, 154 690.356 C 154 703.894, 173.518 716.795, 194 716.795 C 214.783 716.794, 217.507 714.942, 263.012 669.877 C 286.119 646.994, 307.661 627.269, 310.883 626.044 C 315.893 624.140, 318.163 624.554, 326.555 628.908 C 341.297 636.557, 350.003 635.278, 355.673 624.631 C 359.290 617.841, 358.466 612.861, 352.566 605.849 C 342.818 594.264, 320.211 587.925, 303.467 592.081" stroke="none" fill="#fff" fill-rule="evenodd"/> <path id="path_4" isStroke="false" d="M 394.511 663.069 C 391.053 664.523, 387.575 668.198, 385.954 672.110 C 383.426 678.214, 383.623 679.416, 388.612 688.352 C 397.930 705.041, 398.495 704.056, 353.376 749.807 C 331.033 772.463, 310.675 794.431, 308.136 798.625 C 302.522 807.897, 300.536 827.238, 303.915 839.725 C 305.271 844.737, 309.521 851.930, 313.901 856.625 C 320.071 863.240, 322.888 864.800, 328.664 864.800 C 343.621 864.800, 349.616 851.521, 341.167 837.105 C 331.886 821.267, 331.492 821.931, 377.963 774.991 C 423.679 728.813, 427.889 722.833, 427.945 704 C 427.990 688.737, 425.170 680.087, 417.060 670.612 C 409.272 661.513, 403.112 659.453, 394.511 663.069" stroke="none" fill="#fff" fill-rule="evenodd"/> <path id="path_5" isStroke="false" d="M 638.299 682.500 L 628.222 695 718.611 785.509 C 769.680 836.646, 812.045 877.470, 816 879.356 C 826.470 884.348, 837.839 885.895, 848.847 883.824 C 854.264 882.805, 859.174 881.492, 859.761 880.906 C 860.889 879.777, 651.948 670, 649.695 670 C 648.969 670, 643.841 675.625, 638.299 682.500" stroke="none" fill="#fff" fill-rule="evenodd"/> <path id="path_6" isStroke="true" d="M 86.803 860.451 C 66.970 880.553, 49.219 900.301, 47.356 904.335 C 42.399 915.070, 41.167 928.192, 44.006 940.025 L 46.503 950.433 24.251 972.748 C 2.998 994.062, 2 995.439, 2 1003.453 C 2 1013.923, 7.710 1020, 17.545 1020 C 23.515 1020, 27.207 1017.190, 48.067 996.769 C 71.684 973.651, 71.829 973.549, 78.198 975.769 C 81.717 976.996, 89.188 977.991, 94.798 977.980 C 112.844 977.946, 121.382 972.060, 160.500 932.689 L 196 896.959 159.431 860.431 L 122.863 823.902 86.803 860.451" stroke="none" fill="black" fill-rule="evenodd"/>
</svg>